<svg width="1600" height="900" viewBox="0 0 1600 900" fill="none" xmlns="http://www.w3.org/2000/svg">
  <defs>
    <linearGradient id="bg" x1="140" y1="80" x2="1450" y2="860" gradientUnits="userSpaceOnUse">
      <stop stop-color="#F4EFE6"/>
      <stop offset="0.52" stop-color="#E5E2D7"/>
      <stop offset="1" stop-color="#C7D6D1"/>
    </linearGradient>
    <linearGradient id="panel" x1="240" y1="180" x2="1320" y2="720" gradientUnits="userSpaceOnUse">
      <stop stop-color="#102A43" stop-opacity="0.96"/>
      <stop offset="1" stop-color="#1F4E5F" stop-opacity="0.90"/>
    </linearGradient>
    <linearGradient id="line" x1="320" y1="240" x2="1280" y2="760" gradientUnits="userSpaceOnUse">
      <stop stop-color="#9FB3C8" stop-opacity="0.55"/>
      <stop offset="1" stop-color="#8BD3C7" stop-opacity="0.12"/>
    </linearGradient>
    <filter id="shadow" x="190" y="150" width="1220" height="640" filterUnits="userSpaceOnUse" color-interpolation-filters="sRGB">
      <feFlood flood-opacity="0" result="BackgroundImageFix"/>
      <feColorMatrix in="SourceAlpha" type="matrix" values="0 0 0 0 0 0 0 0 0 0 0 0 0 0 0 0 0 0 127 0" result="hardAlpha"/>
      <feOffset dy="18"/>
      <feGaussianBlur stdDeviation="25"/>
      <feColorMatrix type="matrix" values="0 0 0 0 0.0745 0 0 0 0 0.1176 0 0 0 0 0.1804 0 0 0 0.18 0"/>
      <feBlend mode="normal" in2="BackgroundImageFix" result="effect1_dropShadow_1_1"/>
      <feBlend mode="normal" in="SourceGraphic" in2="effect1_dropShadow_1_1" result="shape"/>
    </filter>
  </defs>

  <rect width="1600" height="900" fill="url(#bg)"/>

  <g opacity="0.55">
    <circle cx="1320" cy="164" r="154" fill="#E8D9B9"/>
    <circle cx="1440" cy="112" r="68" fill="#D6E7E2"/>
    <circle cx="238" cy="754" r="220" fill="#D8E4E0"/>
  </g>

  <g opacity="0.24" stroke="#5C6F7D">
    <path d="M82 212H462"/>
    <path d="M112 256H398"/>
    <path d="M96 300H430"/>
    <path d="M1180 688H1490"/>
    <path d="M1126 732H1458"/>
    <path d="M1186 776H1470"/>
  </g>

  <g filter="url(#shadow)">
    <rect x="222" y="170" width="1156" height="560" rx="34" fill="url(#panel)"/>
    <rect x="252" y="202" width="1096" height="496" rx="22" stroke="url(#line)" stroke-width="1.5"/>
  </g>

  <g opacity="0.22" stroke="#D7E2EA" stroke-width="1">
    <path d="M320 254H1278"/>
    <path d="M320 326H1278"/>
    <path d="M320 398H1278"/>
    <path d="M320 470H1278"/>
    <path d="M320 542H1278"/>
    <path d="M320 614H1278"/>
    <path d="M320 686H1278"/>
    <path d="M368 230V690"/>
    <path d="M528 230V690"/>
    <path d="M688 230V690"/>
    <path d="M848 230V690"/>
    <path d="M1008 230V690"/>
    <path d="M1168 230V690"/>
  </g>

  <g opacity="0.36">
    <rect x="1126" y="258" width="116" height="10" rx="5" fill="#E8D9B9"/>
    <rect x="1126" y="280" width="168" height="10" rx="5" fill="#8BD3C7"/>
    <rect x="1126" y="302" width="136" height="10" rx="5" fill="#D7E2EA"/>
  </g>

  <text x="320" y="420" fill="#F8FAFC" font-family="Avenir Next, Hiragino Sans, Noto Sans JP, sans-serif" font-size="84" font-weight="800" letter-spacing="1.2">
    <tspan x="320" dy="0">AI時代に残る</tspan>
    <tspan x="320" dy="112">ITエンジニア像を</tspan>
    <tspan x="320" dy="112">想像する</tspan>
  </text>

  <g opacity="0.42">
    <path d="M1186 560C1186 500 1234 452 1294 452H1320" stroke="#8BD3C7" stroke-width="4" stroke-linecap="round"/>
    <circle cx="1186" cy="560" r="10" fill="#8BD3C7"/>
    <circle cx="1328" cy="452" r="10" fill="#E8D9B9"/>
    <path d="M1118 618H1290" stroke="#D7E2EA" stroke-width="2" stroke-linecap="round"/>
    <path d="M1118 648H1250" stroke="#D7E2EA" stroke-width="2" stroke-linecap="round"/>
    <path d="M1118 678H1272" stroke="#D7E2EA" stroke-width="2" stroke-linecap="round"/>
  </g>
</svg>
